<svg xmlns="http://www.w3.org/2000/svg" shape-rendering="geometricPrecision" text-rendering="geometricPrecision" image-rendering="optimizeQuality" fill-rule="evenodd" clip-rule="evenodd" viewBox="0 0 473 511.547"><path d="M288 377.021H68.212L18.21 511.547H0L168.106 62.496h20.316l168.104 449.051h-18.21L288 377.021zm58.86-285.363c-3.149-3.165-3.133-8.288.032-11.437 3.165-3.149 8.288-3.133 11.437.032l41.497 41.511.182-113.684c0-4.46 3.62-8.08 8.08-8.08s8.08 3.62 8.08 8.08l-.18 113.594 42.379-42.379c3.164-3.165 8.303-3.165 11.469 0a8.115 8.115 0 010 11.469l-56.258 56.223c-3.165 3.149-8.288 3.133-11.437-.032L346.86 91.658zM74.316 360.6h207.578L178.315 82.495 74.316 360.6z"/></svg>