<?xml version="1.0" encoding="utf-8"?><svg version="1.1" id="Layer_1" xmlns="http://www.w3.org/2000/svg" xmlns:xlink="http://www.w3.org/1999/xlink" x="0px" y="0px" viewBox="0 0 122.88 90.332" enable-background="new 0 0 122.88 90.332" xml:space="preserve"><g><path fill-rule="evenodd" clip-rule="evenodd" fill="#262626" d="M19.961,0h82.962c1.578,0,3.023,0.653,4.07,1.7l0,0l0.008,0.007 l0.007,0.009l0.009,0.007c1.046,1.054,1.691,2.492,1.691,4.069v11.784h5.302c2.444,0,4.661,1.004,6.262,2.605 c1.608,1.608,2.607,3.834,2.607,6.266v37.439c0,2.433-1.004,4.653-2.61,6.26c-0.122,0.122-0.25,0.236-0.381,0.343 c-1.568,1.403-3.636,2.267-5.878,2.267h-5.302v11.791c0,1.593-0.653,3.038-1.7,4.085c-1.046,1.046-2.492,1.7-4.085,1.7H19.961 c-1.578,0-3.023-0.647-4.078-1.7l-0.007-0.009l-0.009-0.007l-0.007-0.008c-1.047-1.054-1.693-2.492-1.693-4.07V72.756H8.871 c-2.431,0-4.657-0.997-6.265-2.607C1.004,68.547,0,66.332,0,63.887V26.447c0-2.446,0.997-4.664,2.602-6.269 c0.122-0.122,0.249-0.237,0.382-0.344c1.569-1.402,3.633-2.258,5.887-2.258h5.297V5.777c0.016-1.592,0.662-3.039,1.709-4.085 c0.061-0.063,0.122-0.124,0.191-0.178C17.1,0.577,18.468,0,19.961,0L19.961,0L19.961,0z M52.728,7.431 c2.057,0,3.724,1.669,3.724,3.724c0,2.057-1.667,3.726-3.724,3.726s-3.725-1.669-3.725-3.726C49.003,9.1,50.671,7.431,52.728,7.431 L52.728,7.431z M39.557,7.431c2.055,0,3.725,1.669,3.725,3.724c0,2.057-1.669,3.726-3.725,3.726c-2.057,0-3.726-1.669-3.726-3.726 C35.831,9.1,37.5,7.431,39.557,7.431L39.557,7.431z M26.387,7.431c2.055,0,3.724,1.669,3.724,3.724 c0,2.057-1.669,3.726-3.724,3.726c-2.057,0-3.727-1.669-3.727-3.726C22.66,9.1,24.33,7.431,26.387,7.431L26.387,7.431z M8.873,22.378h105.155c2.239,0,4.068,1.894,4.068,4.069v37.439c0,2.175-1.894,4.068-4.068,4.068H8.873 c-2.175,0-4.069-1.829-4.069-4.068V26.447C4.804,24.208,6.633,22.378,8.873,22.378L8.873,22.378z M103.485,72.756H19.407v0.102 v11.674v0.002v0.026l0.004,0.029l0.001,0.026l0.002,0.002l0.003,0.026l0.005,0.027h0.002l0.005,0.025h0.002l0.007,0.026h0.002 l0.007,0.025h0.001l0.009,0.023h0.001l0.011,0.025h0.001c0.025,0.047,0.052,0.089,0.086,0.127l0,0l0.009,0.007 c0.099,0.101,0.229,0.154,0.393,0.154h82.962l0.041-0.002c0.306,0,0.553-0.245,0.553-0.55V72.857c0-0.028-0.013-0.056-0.032-0.073 V72.756L103.485,72.756z"/><path fill="#FF0000" d="M12.984,33.093h18.43v5.188h-10.95v4.211h9.367v4.886h-9.367v9.838h-7.48V33.093L12.984,33.093z M33.597,45.171c0-3.937,1.096-7.001,3.291-9.192c2.197-2.194,5.25-3.291,9.17-3.291c4.015,0,7.11,1.077,9.282,3.229 c2.174,2.154,3.257,5.177,3.257,9.058c0,2.819-0.472,5.127-1.42,6.929c-0.949,1.803-2.324,3.208-4.116,4.212 c-1.796,1.006-4.032,1.505-6.71,1.505c-2.718,0-4.972-0.429-6.756-1.297c-1.782-0.867-3.228-2.241-4.335-4.116 C34.154,50.338,33.597,47.99,33.597,45.171L33.597,45.171z M41.042,45.188c0,2.432,0.454,4.186,1.359,5.245 c0.908,1.063,2.145,1.595,3.706,1.595c1.601,0,2.847-0.522,3.723-1.562c0.881-1.044,1.32-2.909,1.32-5.609 c0-2.269-0.46-3.926-1.376-4.97c-0.921-1.05-2.162-1.573-3.734-1.573c-1.505,0-2.716,0.535-3.627,1.595 C41.5,40.973,41.042,42.734,41.042,45.188L41.042,45.188z M61.79,33.093h6.958l9.046,13.32v-13.32h7.042v24.124h-7.042 L68.798,43.97v13.247H61.79V33.093L61.79,33.093z M87.221,33.093h22.676v5.963h-7.615v18.161h-7.445V39.056h-7.615V33.093 L87.221,33.093z"/></g></svg>