<svg xmlns="http://www.w3.org/2000/svg" shape-rendering="geometricPrecision" text-rendering="geometricPrecision" image-rendering="optimizeQuality" fill-rule="evenodd" clip-rule="evenodd" viewBox="0 0 361 511.96"><path fill-rule="nonzero" d="M30.17 426.06h300.66l-44.67-51.15c-3.43-3.91-3.07-9.9.81-13.37a9.328 9.328 0 0 1 13.24.82l58.3 66.77c3.24 3.53 3.36 9.03.14 12.71l-58.44 66.93a9.32 9.32 0 0 1-13.24.82c-3.88-3.46-4.24-9.46-.81-13.37l44.66-51.15H30.18l44.66 51.15c3.43 3.91 3.07 9.91-.81 13.37a9.32 9.32 0 0 1-13.24-.82L2.35 441.84c-3.22-3.68-3.1-9.18.14-12.71l58.3-66.77a9.328 9.328 0 0 1 13.24-.82c3.88 3.47 4.24 9.46.81 13.37l-44.67 51.15zm316.11-404.1h-154.7v347.73h-22.16V21.96H11.66V0h337.68v21.96h-3.06z"/></svg>