<svg xmlns="http://www.w3.org/2000/svg" shape-rendering="geometricPrecision" text-rendering="geometricPrecision" image-rendering="optimizeQuality" fill-rule="evenodd" clip-rule="evenodd" viewBox="0 0 352 512.3"><path fill-rule="nonzero" d="M327.37 72.01H216.03v262.56H134.3V72.01H24.62V0h302.75v72.01zm-72.8 393.62H97.42v39.03a7.64 7.64 0 0 1-7.64 7.64c-2.27 0-4.31-1-5.72-2.58l-81.62-66.2c-3.08-2.85-3.27-7.66-.42-10.74l82.57-67.14a7.607 7.607 0 0 1 10.76.39 7.568 7.568 0 0 1 2.05 5.19l.02 39.03h157.15v-39.03c0-4.21 3.42-7.64 7.64-7.64 2.18 0 4.15.92 5.55 2.39l81.81 66.4c3.08 2.87 3.26 7.68.39 10.76-22.61 22.61-58.92 45.2-82.57 67.11-3.07 2.86-7.89 2.69-10.76-.39a7.575 7.575 0 0 1-2.04-5.19l-.02-39.03z"/></svg>